<?xml version="1.0" standalone="no"?>
<!DOCTYPE svg PUBLIC "-//W3C//DTD SVG 20010904//EN"
 "http://www.w3.org/TR/2001/REC-SVG-20010904/DTD/svg10.dtd">
<svg version="1.0" xmlns="http://www.w3.org/2000/svg"
 width="604.000000pt" height="603.000000pt" viewBox="0 0 604.000000 603.000000"
 preserveAspectRatio="xMidYMid meet">

<g transform="translate(0.000000,603.000000) scale(0.100000,-0.100000)"
fill="#215075" stroke="none">
<path d="M2976 5591 c-26 -29 -29 -53 -33 -262 l-4 -196 27 -22 c31 -25 67
-22 97 8 16 15 19 44 24 229 5 187 4 214 -11 236 -20 32 -74 36 -100 7z"/>
<path d="M2692 5303 c-12 -2 -30 -19 -40 -36 -15 -28 -17 -67 -20 -286 -2
-140 -1 -265 2 -277 14 -54 81 -72 127 -35 24 19 24 20 27 283 4 287 -1 327
-43 346 -14 7 -27 11 -28 11 -1 -1 -12 -4 -25 -6z"/>
<path d="M3268 5271 l-33 -29 0 -275 c0 -294 1 -298 52 -318 27 -10 70 4 89
29 10 13 13 84 14 304 0 285 0 287 -22 302 -33 24 -64 19 -100 -13z"/>
<path d="M2957 4862 c-13 -14 -17 -38 -17 -100 0 -93 16 -122 70 -122 54 0 70
28 70 124 0 76 -2 86 -22 100 -30 22 -81 20 -101 -2z"/>
<path d="M2293 4410 c-48 -20 -55 -46 -51 -215 l3 -156 83 -77 c45 -42 126
-129 180 -193 53 -64 132 -158 175 -208 l77 -92 0 -67 c0 -37 -3 -76 -6 -87
-5 -19 -45 -42 -119 -68 -72 -25 -195 -118 -252 -191 -80 -102 -106 -139 -129
-184 -18 -35 -55 -124 -60 -142 -1 -5 -6 -19 -33 -87 -21 -56 -53 -70 -107
-48 -23 10 -50 32 -67 56 -36 52 -85 73 -164 72 -176 -2 -276 -187 -183 -340
27 -44 91 -84 145 -91 75 -8 133 15 192 75 49 50 55 53 101 53 l49 0 4 -37 c2
-21 4 -136 4 -255 0 -262 5 -252 -118 -242 -98 8 -132 -4 -148 -54 -9 -26 -10
-113 -4 -331 11 -426 11 -419 2 -428 -5 -4 -74 -9 -153 -10 -178 -3 -207 -13
-223 -78 -6 -24 -11 -116 -11 -205 0 -187 5 -179 -112 -175 -61 3 -69 1 -93
-25 -14 -15 -28 -43 -32 -63 -4 -29 -1 -40 20 -61 l26 -26 1721 0 1722 0 29
29 c31 32 38 76 17 102 -27 32 -48 40 -114 45 -126 9 -114 -12 -114 193 0 100
-5 191 -11 209 -16 48 -50 56 -199 49 -168 -8 -176 -5 -184 84 -4 37 -6 209
-5 383 2 398 13 374 -166 379 l-90 2 -3 249 c-3 198 -1 251 10 257 17 11 135
11 142 1 3 -5 5 -49 5 -98 0 -153 2 -176 17 -213 20 -48 42 -70 89 -92 51 -24
129 -24 181 0 39 18 84 65 97 103 3 10 7 181 8 381 1 383 1 385 -45 435 -35
40 -76 55 -138 53 -147 -4 -194 -65 -205 -265 l-6 -116 -82 0 -83 0 -17 68
c-21 87 -83 217 -139 296 -89 124 -234 238 -403 315 l-53 24 0 91 0 91 88 102
c48 55 136 157 195 226 60 69 135 147 168 173 70 56 72 63 68 243 -5 186 12
174 -277 183 -334 9 -1194 8 -1219 -2z m1318 -192 c1 -13 2 -38 4 -55 l3 -33
-608 0 -607 0 -1 55 0 55 604 0 604 0 1 -22z m-831 -483 c13 -14 21 -25 18
-25 -2 0 -15 11 -28 25 -13 14 -21 25 -18 25 2 0 15 -11 28 -25z m410 -596
c147 -40 266 -121 368 -248 104 -130 152 -271 152 -445 0 -58 -4 -95 -9 -88
-5 9 -24 12 -55 10 l-47 -3 -25 -73 c-13 -41 -39 -97 -58 -125 -33 -52 -128
-146 -178 -177 -16 -9 -25 -20 -20 -25 4 -5 2 -5 -5 -1 -13 7 -65 -13 -58 -24
2 -3 -31 -13 -73 -21 -100 -18 -270 -17 -345 4 -69 18 -175 80 -236 136 -24
23 -47 39 -51 36 -5 -3 -12 0 -16 6 -4 8 -3 9 4 5 17 -11 15 9 -3 24 -21 17
-80 132 -96 185 -14 48 -15 48 -99 49 -34 1 -35 2 -38 46 -4 60 14 191 38 269
48 159 195 327 360 412 137 70 339 90 490 48z m1023 -396 c-7 -2 -21 -2 -30 0
-10 3 -4 5 12 5 17 0 24 -2 18 -5z m-20 -500 c-13 -2 -33 -2 -45 0 -13 2 -3 4
22 4 25 0 35 -2 23 -4z m-1876 -195 c-2 -24 -4 -5 -4 42 0 47 2 66 4 43 2 -24
2 -62 0 -85z m1388 -128 c-3 -5 -16 -10 -28 -9 -21 0 -21 1 -2 9 28 12 37 12
30 0z m-952 -7 c-13 -2 -33 -2 -45 0 -13 2 -3 4 22 4 25 0 35 -2 23 -4z m560
0 c-13 -2 -35 -2 -50 0 -16 2 -5 4 22 4 28 0 40 -2 28 -4z m667 -338 l0 -145
-970 0 -970 0 0 145 0 145 970 0 970 0 0 -145z m-2291 -702 c-23 -6 -26 -23
-28 -141 l-2 -101 78 -4 78 -3 -82 -2 -83 -2 0 130 0 130 28 -1 c15 -1 20 -3
11 -6z m344 0 c-13 -2 -33 -2 -45 0 -13 2 -3 4 22 4 25 0 35 -2 23 -4z m560 0
c-13 -2 -33 -2 -45 0 -13 2 -3 4 22 4 25 0 35 -2 23 -4z m720 0 c-13 -2 -33
-2 -45 0 -13 2 -3 4 22 4 25 0 35 -2 23 -4z m560 0 c-13 -2 -33 -2 -45 0 -13
2 -3 4 22 4 25 0 35 -2 23 -4z m-100 -250 c-24 -2 -62 -2 -85 0 -24 2 -5 4 42
4 47 0 66 -2 43 -4z"/>
<path d="M2918 2896 c-64 -19 -109 -48 -162 -107 -66 -73 -89 -141 -90 -264
-1 -88 2 -107 25 -155 34 -72 84 -130 114 -130 28 0 82 36 109 73 19 25 21 42
21 160 0 123 2 136 28 189 37 76 96 134 170 168 l62 28 -50 22 c-61 28 -161
35 -227 16z"/>
<path d="M3156 2730 c-58 -23 -91 -52 -117 -102 -16 -32 -19 -56 -16 -175 2
-125 0 -142 -19 -178 -28 -51 -53 -73 -101 -90 l-38 -14 40 -16 c57 -24 165
-17 229 15 137 69 234 252 207 393 -12 62 -36 133 -57 164 -18 29 -60 30 -128
3z"/>
<path d="M1653 3982 c-21 -3 -39 -30 -57 -84 -3 -11 4 -28 17 -43 22 -25 23
-25 202 -26 l179 -1 23 26 c26 30 32 96 10 114 -12 10 -321 21 -374 14z"/>
<path d="M4022 3982 c-14 -4 -42 -66 -42 -93 0 -11 9 -28 20 -39 19 -19 33
-20 203 -20 201 0 202 0 226 63 13 34 -4 76 -33 82 -30 6 -359 13 -374 7z"/>
<path d="M1350 3528 c-26 -42 -25 -78 1 -112 l20 -26 189 0 c182 0 190 1 214
23 28 24 34 48 23 89 -11 40 -57 50 -254 55 l-172 5 -21 -34z"/>
<path d="M4246 3538 c-9 -13 -16 -43 -16 -69 0 -77 6 -79 229 -79 190 0 192 0
216 25 36 35 35 96 -1 124 -25 20 -40 21 -220 21 -188 0 -193 -1 -208 -22z"/>
</g>
</svg>
