<?xml version="1.0" encoding="UTF-8"?>
<!-- Direction B shell icon: Beans. 24 grid, 1.75 stroke, round caps and joins, hollow.
     Kept in step with IconBeanData in Resources/Styles/IconGeometries.xaml. -->
<svg xmlns="http://www.w3.org/2000/svg" width="24" height="24" viewBox="0 0 24 24"
     fill="none" stroke="#FFFFFF" stroke-width="1.75" stroke-linecap="round" stroke-linejoin="round">
  <path d="M4.4 7.2 C2.8 10.1 4.2 15.1 8 17.2 C11 18.8 13.8 16.5 13.6 12.8 C13.4 9.3 10.7 6.5 7.7 5.9 C6.3 5.6 5.1 6.1 4.4 7.2 Z M6.2 8.2 C7.8 9.1 8.6 11.1 8.2 13.1 C8 14.1 8.4 15 9.3 15.5 M11.2 6.2 C9.8 8.6 10.6 13.1 13.7 15.5 C16.4 17.6 19.4 16 20 12.8 C20.6 9.7 18.4 6.4 15.7 5.3 C13.9 4.6 12.1 4.9 11.2 6.2 Z M13.2 7.2 C14.6 8.4 15.4 10.1 15.2 11.8 C15 13 15.5 14 16.6 14.5"/>
</svg>
